<svg xmlns="http://www.w3.org/2000/svg" width="96" height="96" fill="none" viewBox="0 0 96 96" id="message-text">
  <path fill="#FFB800" stroke="#000" stroke-width="5" d="M48.4 81.2C66.9568 81.2 82 66.1568 82 47.6C82 29.0432 66.9568 14 48.4 14C29.8432 14 14.8 29.0432 14.8 47.6C14.8 53.2995 16.2191 58.6676 18.7232 63.3701C19.0739 64.0286 19.1444 64.8049 18.8841 65.5041L13.7408 79.3231C13.0228 81.2521 14.8132 83.1738 16.7882 82.5938L32.5113 77.9762C33.1159 77.7987 33.7635 77.8597 34.3357 78.1238C38.6142 80.0984 43.3784 81.2 48.4 81.2Z"></path>
  <path stroke="#000" stroke-linecap="round" stroke-width="5" d="M38 40L60 40M32 50L66 50M42 60H56"></path>
</svg>
