<svg xmlns="http://www.w3.org/2000/svg" enable-background="new 0 0 128 128" viewBox="0 0 128 128" id="new-message">
  <g id="Notifications_Message">
    <ellipse cx="62" cy="17" fill="#f99900" rx="11" ry="14"></ellipse>
    <path fill="#fcb542" d="M109,102H15l5.775-50.242C23.183,30.811,40.915,15,62,15h0c21.085,0,38.817,15.811,41.225,36.758L109,102z"></path>
    <ellipse cx="62" cy="105" fill="#fcb542" rx="52" ry="20"></ellipse>
    <ellipse cx="62" cy="105" fill="#f99900" rx="40" ry="10"></ellipse>
    <path fill="#fdcb6e" d="M114,89v16c0-2.84-1.54-5.55-4.33-8C101.65,89.93,83.32,85,62,85s-39.65,4.93-47.67,12
			c-2.79,2.45-4.33,5.16-4.33,8V89c0-11.05,23.28-20,52-20S114,77.95,114,89z"></path>
    <path fill="#fdcb6e" d="M79,102c0,4.99-2.15,9.47-5.57,12.58C70.41,117.33,66.41,119,62,119s-8.41-1.67-11.43-4.42
			C47.15,111.47,45,106.99,45,102c0-2.18,0.41-4.27,1.16-6.18C51.02,95.29,56.37,95,62,95s10.98,0.29,15.84,0.82
			C78.59,97.73,79,99.82,79,102z"></path>
    <path fill="#74b9ff" d="M108,12H78c-5.523,0-10,4.477-10,10v20c0,5.523,4.477,10,10,10h1l-1,6l11-6h19c5.523,0,10-4.477,10-10V22
			C118,16.477,113.523,12,108,12z"></path>
    <path fill="#eeecff" d="M93.02 44c-1.104 0-2.005-.896-2.005-2s.89-2 1.995-2h.01c1.104 0 2 .896 2 2S94.125 44 93.02 44zM84.02 44c-1.104 0-2.005-.896-2.005-2s.89-2 1.995-2h.01c1.104 0 2 .896 2 2S85.125 44 84.02 44zM102.02 44c-1.104 0-2.005-.896-2.005-2s.89-2 1.995-2h.01c1.104 0 2 .896 2 2S103.125 44 102.02 44z"></path>
  </g>
</svg>
